G04*
G04 #@! TF.GenerationSoftware,Altium Limited,Altium Designer,22.1.2 (22)*
G04*
G04 Layer_Color=128*
%FSLAX44Y44*%
%MOMM*%
G71*
G04*
G04 #@! TF.SameCoordinates,7F6DEDBC-D18B-47E0-87DD-0464843C39CA*
G04*
G04*
G04 #@! TF.FilePolarity,Positive*
G04*
G01*
G75*
%ADD130C,0.0508*%
D130*
X541130Y11576D02*
X546130D01*
X543630Y9076D02*
Y14076D01*
X454630Y11576D02*
X459630D01*
X457130Y9076D02*
Y14076D01*
X454630Y53376D02*
X459630D01*
X457130Y50876D02*
Y55876D01*
X541130Y53376D02*
X546130D01*
X543630Y50876D02*
Y55876D01*
X897509Y579882D02*
X907415D01*
X902462Y574929D02*
Y584835D01*
X897509Y554482D02*
X907415D01*
X902462Y549529D02*
Y559435D01*
X642747Y75946D02*
X652653D01*
X647700Y70993D02*
Y80899D01*
X617347Y75946D02*
X627253D01*
X622300Y70993D02*
Y80899D01*
X372999Y75946D02*
X382905D01*
X377952Y70993D02*
Y80899D01*
X347599Y75946D02*
X357505D01*
X352552Y70993D02*
Y80899D01*
X310198Y113792D02*
X318198D01*
X314198Y109792D02*
Y117792D01*
X284798Y113792D02*
X292798D01*
X288798Y109792D02*
Y117792D01*
X468090Y48257D02*
X475090D01*
X471590Y44757D02*
Y51757D01*
X525748Y48257D02*
X532748D01*
X529248Y44757D02*
Y51757D01*
X207042Y91440D02*
X211042D01*
X209042Y89440D02*
Y93440D01*
X657892Y745236D02*
X661892D01*
X659892Y743236D02*
Y747236D01*
X644684Y745236D02*
X648684D01*
X646684Y743236D02*
Y747236D01*
X265859Y310618D02*
X268859D01*
X267359Y309118D02*
Y312118D01*
X254842Y310825D02*
X257842D01*
X256342Y309325D02*
Y312325D01*
X247420Y195072D02*
X250420D01*
X248920Y193572D02*
Y196572D01*
X900208Y447802D02*
X904208D01*
X902208Y445802D02*
Y449802D01*
X172244Y231902D02*
X176244D01*
X174244Y229902D02*
Y233902D01*
X221012Y230124D02*
X225012D01*
X223012Y228124D02*
Y232124D01*
X209074Y230378D02*
X213074D01*
X211074Y228378D02*
Y232378D01*
X808252Y544576D02*
X811252D01*
X809752Y543076D02*
Y546076D01*
X887246Y350774D02*
X890246D01*
X888746Y349274D02*
Y352274D01*
X887246Y355473D02*
X890246D01*
X888746Y353973D02*
Y356973D01*
X887246Y360172D02*
X890246D01*
X888746Y358672D02*
Y361672D01*
X444532Y195072D02*
X448532D01*
X446532Y193072D02*
Y197072D01*
X455200Y204724D02*
X459200D01*
X457200Y202724D02*
Y206724D01*
X432848Y204724D02*
X436848D01*
X434848Y202724D02*
Y206724D01*
X508540Y184150D02*
X512540D01*
X510540Y182150D02*
Y186150D01*
X508540Y193484D02*
X512540D01*
X510540Y191485D02*
Y195485D01*
X508540Y202819D02*
X512540D01*
X510540Y200819D02*
Y204819D01*
X508540Y174816D02*
X512540D01*
X510540Y172815D02*
Y176815D01*
X508540Y165481D02*
X512540D01*
X510540Y163481D02*
Y167481D01*
X485934Y184150D02*
X489934D01*
X487934Y182150D02*
Y186150D01*
X485934Y193484D02*
X489934D01*
X487934Y191485D02*
Y195485D01*
X485934Y202819D02*
X489934D01*
X487934Y200819D02*
Y204819D01*
X485934Y174816D02*
X489934D01*
X487934Y172815D02*
Y176815D01*
X485934Y165481D02*
X489934D01*
X487934Y163481D02*
Y167481D01*
X497364Y165608D02*
X501364D01*
X499364Y163608D02*
Y167608D01*
X497364Y174942D02*
X501364D01*
X499364Y172943D02*
Y176943D01*
X497364Y202946D02*
X501364D01*
X499364Y200946D02*
Y204946D01*
X497364Y193612D02*
X501364D01*
X499364Y191611D02*
Y195611D01*
X497364Y184277D02*
X501364D01*
X499364Y182277D02*
Y186277D01*
X161322Y295910D02*
X165322D01*
X163322Y293910D02*
Y297910D01*
X161322Y308864D02*
X165322D01*
X163322Y306864D02*
Y310864D01*
X198406Y225552D02*
X202406D01*
X200406Y223552D02*
Y227552D01*
X144558Y253238D02*
X148558D01*
X146558Y251238D02*
Y255238D01*
X144558Y263525D02*
X148558D01*
X146558Y261525D02*
Y265525D01*
X144558Y273812D02*
X148558D01*
X146558Y271812D02*
Y275812D01*
X106966Y305816D02*
X110966D01*
X108966Y303816D02*
Y307816D01*
X113570Y305816D02*
X117570D01*
X115570Y303816D02*
Y307816D01*
X234220Y419862D02*
X238220D01*
X236220Y417862D02*
Y421862D01*
X788194Y606552D02*
X792194D01*
X790194Y604552D02*
Y608552D01*
X882936Y398272D02*
X886936D01*
X884936Y396272D02*
Y400272D01*
X891699Y398272D02*
X895699D01*
X893699Y396272D02*
Y400272D01*
X900462Y398272D02*
X904462D01*
X902462Y396272D02*
Y400272D01*
X900462Y404368D02*
X904462D01*
X902462Y402368D02*
Y406368D01*
X900462Y410464D02*
X904462D01*
X902462Y408464D02*
Y412464D01*
X781590Y789178D02*
X785590D01*
X783590Y787178D02*
Y791178D01*
X781590Y835533D02*
X785590D01*
X783590Y833533D02*
Y837533D01*
X733076Y866394D02*
X737076D01*
X735076Y864394D02*
Y868394D01*
X733076Y820039D02*
X737076D01*
X735076Y818039D02*
Y822039D01*
X733076Y773684D02*
X737076D01*
X735076Y771684D02*
Y775684D01*
X303598Y893064D02*
X307598D01*
X305598Y891064D02*
Y895064D01*
X366119Y893064D02*
X370119D01*
X368119Y891064D02*
Y895064D01*
X428639Y893064D02*
X432639D01*
X430639Y891064D02*
Y895064D01*
X491159Y893064D02*
X495159D01*
X493159Y891064D02*
Y895064D01*
X553680Y893064D02*
X557679D01*
X555680Y891064D02*
Y895064D01*
X616200Y893064D02*
X620200D01*
X618200Y891064D02*
Y895064D01*
X678720Y893064D02*
X682720D01*
X680720Y891064D02*
Y895064D01*
X709200Y870712D02*
X713200D01*
X711200Y868712D02*
Y872712D01*
X646680Y870712D02*
X650680D01*
X648680Y868712D02*
Y872712D01*
X584159Y870712D02*
X588159D01*
X586159Y868712D02*
Y872712D01*
X521639Y870712D02*
X525639D01*
X523639Y868712D02*
Y872712D01*
X459119Y870712D02*
X463119D01*
X461119Y868712D02*
Y872712D01*
X396599Y870712D02*
X400598D01*
X398599Y868712D02*
Y872712D01*
X334078Y870712D02*
X338078D01*
X336078Y868712D02*
Y872712D01*
X271558Y870712D02*
X275558D01*
X273558Y868712D02*
Y872712D01*
X541814Y35052D02*
X545814D01*
X543814Y33052D02*
Y37052D01*
X522510Y27178D02*
X526510D01*
X524510Y25178D02*
Y29178D01*
X510826Y14478D02*
X514826D01*
X512826Y12478D02*
Y16478D01*
X491522Y14478D02*
X495522D01*
X493522Y12478D02*
Y16478D01*
X391954Y26670D02*
X395954D01*
X393954Y24670D02*
Y28670D01*
X370262Y26670D02*
X374262D01*
X372262Y24670D02*
Y28670D01*
X348571Y26670D02*
X352571D01*
X350571Y24670D02*
Y28670D01*
X326879Y26670D02*
X330879D01*
X328879Y24670D02*
Y28670D01*
X305188Y26670D02*
X309188D01*
X307188Y24670D02*
Y28670D01*
X283496Y26670D02*
X287496D01*
X285496Y24670D02*
Y28670D01*
X623348Y102108D02*
X627348D01*
X625348Y100108D02*
Y104108D01*
X623094Y118872D02*
X627094D01*
X625094Y116872D02*
Y120872D01*
X622840Y182372D02*
X626840D01*
X624840Y180372D02*
Y184372D01*
X622586Y213868D02*
X626586D01*
X624586Y211868D02*
Y215868D01*
X386112Y154178D02*
X390112D01*
X388112Y152178D02*
Y156178D01*
X405924Y154432D02*
X409924D01*
X407924Y152432D02*
Y156432D01*
X739680Y348742D02*
X743680D01*
X741680Y346742D02*
Y350742D01*
X739680Y375031D02*
X743680D01*
X741680Y373031D02*
Y377031D01*
X692436Y404368D02*
X696436D01*
X694436Y402368D02*
Y406368D01*
X692436Y362966D02*
X696436D01*
X694436Y360966D02*
Y364966D01*
X692436Y323596D02*
X696436D01*
X694436Y321596D02*
Y325596D01*
X692436Y282956D02*
X696436D01*
X694436Y280956D02*
Y284956D01*
X530630Y252222D02*
X533630D01*
X532130Y250722D02*
Y253722D01*
X572286Y248412D02*
X575286D01*
X573786Y246912D02*
Y249912D01*
X572286Y234188D02*
X575286D01*
X573786Y232688D02*
Y235688D01*
X477290Y256794D02*
X480290D01*
X478790Y255294D02*
Y258294D01*
X482878Y256794D02*
X485878D01*
X484378Y255294D02*
Y258294D01*
X482370Y241554D02*
X485370D01*
X483870Y240054D02*
Y243054D01*
X450874Y236982D02*
X453874D01*
X452374Y235482D02*
Y238482D01*
X458494Y244856D02*
X461494D01*
X459994Y243356D02*
Y246356D01*
X442746Y244856D02*
X445746D01*
X444246Y243356D02*
Y246356D01*
X201073Y415798D02*
X205073D01*
X203073Y413798D02*
Y417798D01*
X170403Y415798D02*
X174403D01*
X172402Y413798D02*
Y417798D01*
X190849Y415798D02*
X194849D01*
X192850Y413798D02*
Y417798D01*
X180626Y415798D02*
X184626D01*
X182626Y413798D02*
Y417798D01*
X185579Y421894D02*
X189579D01*
X187579Y419894D02*
Y423894D01*
X195802Y421894D02*
X199802D01*
X197803Y419894D02*
Y423894D01*
X165132Y421894D02*
X169132D01*
X167132Y419894D02*
Y423894D01*
X175355Y421894D02*
X179356D01*
X177355Y419894D02*
Y423894D01*
X206026Y421894D02*
X210026D01*
X208026Y419894D02*
Y423894D01*
X166394Y461772D02*
X169394D01*
X167894Y460272D02*
Y463272D01*
X162076Y461772D02*
X165076D01*
X163576Y460272D02*
Y463272D01*
X205264Y441706D02*
X209264D01*
X207264Y439706D02*
Y443706D01*
X194723Y441706D02*
X198723D01*
X196723Y439706D02*
Y443706D01*
X184182Y441706D02*
X188182D01*
X186182Y439706D02*
Y443706D01*
X173641Y441706D02*
X177641D01*
X175641Y439706D02*
Y443706D01*
X163100Y441706D02*
X167100D01*
X165100Y439706D02*
Y443706D01*
X331756Y232918D02*
X335756D01*
X333756Y230918D02*
Y234918D01*
X300387Y232918D02*
X304387D01*
X302387Y230918D02*
Y234918D01*
X269018Y232918D02*
X273018D01*
X271018Y230918D02*
Y234918D01*
X254794Y216408D02*
X258794D01*
X256794Y214408D02*
Y218408D01*
X254794Y168614D02*
X258794D01*
X256794Y166614D02*
Y170614D01*
X254794Y190246D02*
X258794D01*
X256794Y188246D02*
Y192246D01*
X232950Y223774D02*
X236950D01*
X234950Y221774D02*
Y225774D01*
X721036Y20066D02*
X725036D01*
X723036Y18066D02*
Y22066D01*
X692385Y19304D02*
X696385D01*
X694385Y17304D02*
Y21304D01*
X663734Y19304D02*
X667734D01*
X665734Y17304D02*
Y21304D01*
X635083Y19304D02*
X639083D01*
X637083Y17304D02*
Y21304D01*
X606432Y19304D02*
X610432D01*
X608432Y17304D02*
Y21304D01*
X577780Y19304D02*
X581780D01*
X579780Y17304D02*
Y21304D01*
X881666Y166116D02*
X885666D01*
X883666Y164116D02*
Y168116D01*
X881666Y202946D02*
X885666D01*
X883666Y200946D02*
Y204946D01*
X881666Y239776D02*
X885666D01*
X883666Y237776D02*
Y241776D01*
X840772Y165100D02*
X844772D01*
X842772Y163100D02*
Y167100D01*
X840772Y182414D02*
X844772D01*
X842772Y180414D02*
Y184414D01*
X840772Y199729D02*
X844772D01*
X842772Y197729D02*
Y201729D01*
X840772Y217043D02*
X844772D01*
X842772Y215043D02*
Y219043D01*
X840772Y234357D02*
X844772D01*
X842772Y232357D02*
Y236357D01*
X821214Y242824D02*
X825214D01*
X823214Y240824D02*
Y244824D01*
X821214Y225510D02*
X825214D01*
X823214Y223510D02*
Y227510D01*
X821214Y208195D02*
X825214D01*
X823214Y206195D02*
Y210195D01*
X821214Y190881D02*
X825214D01*
X823214Y188881D02*
Y192881D01*
X821214Y173567D02*
X825214D01*
X823214Y171567D02*
Y175567D01*
X799116Y173567D02*
X803116D01*
X801116Y171567D02*
Y175567D01*
X799116Y190881D02*
X803116D01*
X801116Y188881D02*
Y192881D01*
X799116Y208195D02*
X803116D01*
X801116Y206195D02*
Y210195D01*
X799116Y225510D02*
X803116D01*
X801116Y223510D02*
Y227510D01*
X799116Y242824D02*
X803116D01*
X801116Y240824D02*
Y244824D01*
X700564Y74930D02*
X704564D01*
X702564Y72930D02*
Y76930D01*
X700564Y90932D02*
X704564D01*
X702564Y88932D02*
Y92932D01*
X700564Y106934D02*
X704564D01*
X702564Y104934D02*
Y108934D01*
X700564Y122936D02*
X704564D01*
X702564Y120936D02*
Y124936D01*
X368332Y115570D02*
X372332D01*
X370332Y113570D02*
Y117570D01*
X368332Y144653D02*
X372332D01*
X370332Y142653D02*
Y146653D01*
X368332Y173736D02*
X372332D01*
X370332Y171736D02*
Y175736D01*
X368332Y202819D02*
X372332D01*
X370332Y200819D02*
Y204819D01*
X368332Y231902D02*
X372332D01*
X370332Y229902D02*
Y233902D01*
X580422Y91186D02*
X584422D01*
X582422Y89186D02*
Y93186D01*
X580422Y64008D02*
X584422D01*
X582422Y62008D02*
Y66008D01*
X596424Y91440D02*
X600424D01*
X598424Y89440D02*
Y93440D01*
X596424Y64262D02*
X600424D01*
X598424Y62262D02*
Y66262D01*
X426752Y78486D02*
X430752D01*
X428752Y76486D02*
Y80486D01*
X426752Y51308D02*
X430752D01*
X428752Y49308D02*
Y53308D01*
X402876Y35814D02*
X406876D01*
X404876Y33814D02*
Y37814D01*
X402876Y62992D02*
X406876D01*
X404876Y60992D02*
Y64992D01*
X402876Y90170D02*
X406876D01*
X404876Y88170D02*
Y92170D01*
X902240Y473964D02*
X906240D01*
X904240Y471964D02*
Y475964D01*
X924846Y473964D02*
X928846D01*
X926846Y471964D02*
Y475964D01*
X947452Y474218D02*
X951452D01*
X949452Y472218D02*
Y476218D01*
X947452Y497925D02*
X951452D01*
X949452Y495925D02*
Y499925D01*
X947452Y521631D02*
X951452D01*
X949452Y519631D02*
Y523631D01*
X962946Y533654D02*
X966946D01*
X964946Y531654D02*
Y535654D01*
X962946Y509947D02*
X966946D01*
X964946Y507947D02*
Y511947D01*
X962946Y486241D02*
X966946D01*
X964946Y484241D02*
Y488241D01*
X962946Y462534D02*
X966946D01*
X964946Y460534D02*
Y464534D01*
X934498Y462280D02*
X938498D01*
X936498Y460280D02*
Y464280D01*
X934498Y485987D02*
X938498D01*
X936498Y483987D02*
Y487987D01*
X934498Y509693D02*
X938498D01*
X936498Y507693D02*
Y511693D01*
X934498Y533400D02*
X938498D01*
X936498Y531400D02*
Y535400D01*
X781336Y401320D02*
X785336D01*
X783336Y399320D02*
Y403320D01*
X739680Y401320D02*
X743680D01*
X741680Y399320D02*
Y403320D01*
X808514Y352552D02*
X812514D01*
X810514Y350552D02*
Y354552D01*
X808514Y371433D02*
X812514D01*
X810514Y369433D02*
Y373433D01*
X808514Y390313D02*
X812514D01*
X810514Y388313D02*
Y392313D01*
X808514Y409194D02*
X812514D01*
X810514Y407194D02*
Y411194D01*
X859314Y313944D02*
X863314D01*
X861314Y311944D02*
Y315944D01*
X844582Y313944D02*
X848582D01*
X846582Y311944D02*
Y315944D01*
X871591Y278638D02*
X875591D01*
X873591Y276638D02*
Y280638D01*
X893011Y278638D02*
X897011D01*
X895011Y276638D02*
Y280638D01*
X914432Y278638D02*
X918432D01*
X916432Y276638D02*
Y280638D01*
X924592Y292100D02*
X928592D01*
X926592Y290100D02*
Y294100D01*
X903171Y292100D02*
X907171D01*
X905171Y290100D02*
Y294100D01*
X881751Y292100D02*
X885751D01*
X883751Y290100D02*
Y294100D01*
X860330Y292100D02*
X864330D01*
X862330Y290100D02*
Y294100D01*
X674148Y440690D02*
X678148D01*
X676148Y438690D02*
Y442690D01*
X674148Y395139D02*
X678148D01*
X676148Y393139D02*
Y397139D01*
X674148Y349589D02*
X678148D01*
X676148Y347589D02*
Y351589D01*
X674148Y304038D02*
X678148D01*
X676148Y302038D02*
Y306038D01*
X602435Y239522D02*
X606435D01*
X604435Y237522D02*
Y241522D01*
X647986Y239522D02*
X651986D01*
X649986Y237522D02*
Y241522D01*
X692436Y239522D02*
X696436D01*
X694436Y237522D02*
Y241522D01*
X714026Y265176D02*
X718026D01*
X716026Y263176D02*
Y267176D01*
X668475Y265176D02*
X672475D01*
X670475Y263176D02*
Y267176D01*
X622925Y265176D02*
X626925D01*
X624925Y263176D02*
Y267176D01*
X577374Y265176D02*
X581374D01*
X579374Y263176D02*
Y267176D01*
X352838Y380492D02*
X356838D01*
X354838Y378492D02*
Y382492D01*
X333534Y359410D02*
X337534D01*
X335534Y357410D02*
Y361410D01*
X370364Y370586D02*
X374364D01*
X372364Y368586D02*
Y372586D01*
X351060Y349504D02*
X355060D01*
X353060Y347504D02*
Y351504D01*
X331756Y328422D02*
X335756D01*
X333756Y326422D02*
Y330422D01*
X312452Y307340D02*
X316452D01*
X314452Y305340D02*
Y309340D01*
X716058Y384471D02*
X720058D01*
X718058Y382471D02*
Y386471D01*
X716058Y353060D02*
X720058D01*
X718058Y351060D02*
Y355060D01*
X716058Y447294D02*
X720058D01*
X718058Y445294D02*
Y449294D01*
X716058Y415883D02*
X720058D01*
X718058Y413883D02*
Y417883D01*
X716058Y478705D02*
X720058D01*
X718058Y476705D02*
Y480705D01*
X716058Y510117D02*
X720058D01*
X718058Y508117D02*
Y512117D01*
X716058Y541528D02*
X720058D01*
X718058Y539528D02*
Y543528D01*
X670338Y572855D02*
X674338D01*
X672338Y570855D02*
Y574855D01*
X670338Y541443D02*
X674338D01*
X672338Y539443D02*
Y543443D01*
X670338Y510032D02*
X674338D01*
X672338Y508032D02*
Y512032D01*
X692436Y493776D02*
X696436D01*
X694436Y491776D02*
Y495776D01*
X692436Y525187D02*
X696436D01*
X694436Y523187D02*
Y527187D01*
X692436Y556599D02*
X696436D01*
X694436Y554599D02*
Y558599D01*
X692436Y588010D02*
X696436D01*
X694436Y586010D02*
Y590010D01*
X749078Y652780D02*
X753078D01*
X751078Y650780D02*
Y654780D01*
X760254Y652780D02*
X764254D01*
X762254Y650780D02*
Y654780D01*
X736378Y684276D02*
X740378D01*
X738378Y682276D02*
Y686276D01*
X736378Y700532D02*
X740378D01*
X738378Y698532D02*
Y702532D01*
X728758Y621538D02*
X732758D01*
X730758Y619538D02*
Y623538D01*
X722408Y627888D02*
X726408D01*
X724408Y625888D02*
Y629888D01*
X759746Y556260D02*
X763746D01*
X761746Y554260D02*
Y558260D01*
X752634Y562610D02*
X756634D01*
X754634Y560610D02*
Y564610D01*
X882428Y583946D02*
X886428D01*
X884428Y581946D02*
Y585946D01*
X859314Y583946D02*
X863314D01*
X861314Y581946D02*
Y585946D01*
X836200Y583946D02*
X840200D01*
X838200Y581946D02*
Y585946D01*
X885476Y712470D02*
X889476D01*
X887476Y710470D02*
Y714470D01*
X862362Y712470D02*
X866362D01*
X864362Y710470D02*
Y714470D01*
X896652Y621284D02*
X900652D01*
X898652Y619284D02*
Y623284D01*
X873538Y621284D02*
X877538D01*
X875538Y619284D02*
Y623284D01*
X862362Y665480D02*
X866362D01*
X864362Y663480D02*
Y667480D01*
X885476Y665480D02*
X889476D01*
X887476Y663480D02*
Y667480D01*
X908590Y665480D02*
X912590D01*
X910590Y663480D02*
Y667480D01*
X816134Y639826D02*
X820134D01*
X818134Y637826D02*
Y641826D01*
X839248Y639826D02*
X843248D01*
X841248Y637826D02*
Y641826D01*
X862362Y639826D02*
X866362D01*
X864362Y637826D02*
Y641826D01*
X885476Y639826D02*
X889476D01*
X887476Y637826D02*
Y641826D01*
X896398Y653288D02*
X900398D01*
X898398Y651288D02*
Y655288D01*
X873284Y653288D02*
X877284D01*
X875284Y651288D02*
Y655288D01*
X850170Y653288D02*
X854170D01*
X852170Y651288D02*
Y655288D01*
X827056Y653288D02*
X831056D01*
X829056Y651288D02*
Y655288D01*
X803942Y653288D02*
X807942D01*
X805942Y651288D02*
Y655288D01*
X873538Y732028D02*
X877538D01*
X875538Y730028D02*
Y734028D01*
X828241Y732028D02*
X832241D01*
X830241Y730028D02*
Y734028D01*
X782945Y732028D02*
X786945D01*
X784945Y730028D02*
Y734028D01*
X737648Y732028D02*
X741648D01*
X739648Y730028D02*
Y734028D01*
X657384Y665734D02*
X661384D01*
X659384Y663734D02*
Y667734D01*
X657384Y693293D02*
X661384D01*
X659384Y691293D02*
Y695293D01*
X657384Y720852D02*
X661384D01*
X659384Y718852D02*
Y722852D01*
X627158Y715772D02*
X631158D01*
X629158Y713772D02*
Y717772D01*
X611664Y715772D02*
X615664D01*
X613664Y713772D02*
Y717772D01*
X599726Y680974D02*
X603726D01*
X601726Y678974D02*
Y682974D01*
X579025Y680974D02*
X583025D01*
X581025Y678974D02*
Y682974D01*
X558324Y680974D02*
X562324D01*
X560324Y678974D02*
Y682974D01*
X558324Y708491D02*
X562324D01*
X560324Y706491D02*
Y710491D01*
X558324Y736007D02*
X562324D01*
X560324Y734007D02*
Y738007D01*
X558324Y763524D02*
X562324D01*
X560324Y761524D02*
Y765524D01*
X570453Y636016D02*
X574453D01*
X572453Y634016D02*
Y638016D01*
X620808Y636016D02*
X624808D01*
X622808Y634016D02*
Y638016D01*
X647732Y613410D02*
X651732D01*
X649732Y611410D02*
Y615410D01*
X597377Y613410D02*
X601376D01*
X599377Y611410D02*
Y615410D01*
X547021Y613410D02*
X551021D01*
X549021Y611410D02*
Y615410D01*
X647478Y655828D02*
X651478D01*
X649478Y653828D02*
Y657828D01*
X597123Y655828D02*
X601123D01*
X599123Y653828D02*
Y657828D01*
X546767Y655828D02*
X550767D01*
X548767Y653828D02*
Y657828D01*
X461296Y663194D02*
X465296D01*
X463296Y661194D02*
Y665194D01*
X461296Y713549D02*
X465296D01*
X463296Y711550D02*
Y715549D01*
X461296Y763905D02*
X465296D01*
X463296Y761905D02*
Y765905D01*
X406686Y637286D02*
X410686D01*
X408686Y635286D02*
Y639286D01*
X406686Y687642D02*
X410686D01*
X408686Y685641D02*
Y689641D01*
X406686Y737997D02*
X410686D01*
X408686Y735997D02*
Y739997D01*
X353854Y763968D02*
X357854D01*
X355854Y761968D02*
Y765968D01*
X353854Y713613D02*
X357854D01*
X355854Y711613D02*
Y715613D01*
X353854Y663258D02*
X357854D01*
X355854Y661257D02*
Y665257D01*
X353854Y612902D02*
X357854D01*
X355854Y610902D02*
Y614902D01*
X649002Y805434D02*
X653002D01*
X651002Y803434D02*
Y807434D01*
X377147Y805434D02*
X381147D01*
X379147Y803434D02*
Y807434D01*
X594631Y805434D02*
X598631D01*
X596631Y803434D02*
Y807434D01*
X540260Y805434D02*
X544260D01*
X542260Y803434D02*
Y807434D01*
X485889Y805434D02*
X489889D01*
X487889Y803434D02*
Y807434D01*
X431518Y805434D02*
X435518D01*
X433518Y803434D02*
Y807434D01*
X322775Y805434D02*
X326776D01*
X324776Y803434D02*
Y807434D01*
X345635Y825500D02*
X349635D01*
X347635Y823500D02*
Y827500D01*
X454378Y825500D02*
X458377D01*
X456377Y823500D02*
Y827500D01*
X508749Y825500D02*
X512749D01*
X510749Y823500D02*
Y827500D01*
X563120Y825500D02*
X567120D01*
X565120Y823500D02*
Y827500D01*
X617491Y825500D02*
X621491D01*
X619491Y823500D02*
Y827500D01*
X400006Y825500D02*
X404007D01*
X402006Y823500D02*
Y827500D01*
X291264Y825500D02*
X295264D01*
X293264Y823500D02*
Y827500D01*
X671862Y825500D02*
X675862D01*
X673862Y823500D02*
Y827500D01*
X589566Y506412D02*
X593566D01*
X591566Y504412D02*
Y508412D01*
X589566Y464778D02*
X593566D01*
X591566Y462778D02*
Y466778D01*
X589566Y423143D02*
X593566D01*
X591566Y421143D02*
Y425143D01*
X589566Y381508D02*
X593566D01*
X591566Y379508D02*
Y383508D01*
X404146Y506666D02*
X408146D01*
X406146Y504666D02*
Y508666D01*
X404146Y465032D02*
X408146D01*
X406146Y463032D02*
Y467032D01*
X404146Y423397D02*
X408146D01*
X406146Y421397D02*
Y425397D01*
X404146Y381762D02*
X408146D01*
X406146Y379762D02*
Y383762D01*
X546386Y528743D02*
X550386D01*
X548386Y526743D02*
Y530743D01*
X546386Y362204D02*
X550386D01*
X548386Y360204D02*
Y364204D01*
X546386Y403839D02*
X550386D01*
X548386Y401839D02*
Y405839D01*
X546386Y445474D02*
X550386D01*
X548386Y443474D02*
Y447474D01*
X546386Y487108D02*
X550386D01*
X548386Y485108D02*
Y489108D01*
X451644Y528997D02*
X455644D01*
X453644Y526997D02*
Y530997D01*
X451644Y362458D02*
X455644D01*
X453644Y360458D02*
Y364458D01*
X451644Y404093D02*
X455644D01*
X453644Y402093D02*
Y406093D01*
X451644Y445728D02*
X455644D01*
X453644Y443728D02*
Y447728D01*
X451644Y487362D02*
X455644D01*
X453644Y485363D02*
Y489362D01*
X498634Y548280D02*
X502634D01*
X500634Y546280D02*
Y550280D01*
X498634Y465010D02*
X502634D01*
X500634Y463010D02*
Y467010D01*
X498634Y423376D02*
X502634D01*
X500634Y421376D02*
Y425376D01*
X498634Y381741D02*
X502634D01*
X500634Y379741D02*
Y383741D01*
X498634Y340106D02*
X502634D01*
X500634Y338106D02*
Y342106D01*
X498634Y506645D02*
X502634D01*
X500634Y504645D02*
Y508645D01*
X161068Y320294D02*
X165068D01*
X163068Y318294D02*
Y322294D01*
X189262Y320294D02*
X193262D01*
X191262Y318294D02*
Y322294D01*
X216686Y348488D02*
X219686D01*
X218186Y346988D02*
Y349988D01*
X203732Y348488D02*
X206732D01*
X205232Y346988D02*
Y349988D01*
X189762Y348488D02*
X192762D01*
X191262Y346988D02*
Y349988D01*
X175792Y348488D02*
X178792D01*
X177292Y346988D02*
Y349988D01*
X161822Y348488D02*
X164822D01*
X163322Y346988D02*
Y349988D01*
X305848Y497861D02*
X309848D01*
X307848Y495861D02*
Y499861D01*
X231172Y789305D02*
X235172D01*
X233172Y787305D02*
Y791305D01*
X265970Y812419D02*
X269970D01*
X267970Y810419D02*
Y814419D01*
X305848Y789305D02*
X309848D01*
X307848Y787305D02*
Y791305D01*
X305848Y706035D02*
X309848D01*
X307848Y704035D02*
Y708035D01*
X305848Y539496D02*
X309848D01*
X307848Y537496D02*
Y541496D01*
X305848Y581131D02*
X309848D01*
X307848Y579131D02*
Y583131D01*
X305848Y622766D02*
X309848D01*
X307848Y620766D02*
Y624766D01*
X305848Y664400D02*
X309848D01*
X307848Y662401D02*
Y666400D01*
X305848Y747670D02*
X309848D01*
X307848Y745670D02*
Y749670D01*
X265970Y729149D02*
X269970D01*
X267970Y727149D02*
Y731149D01*
X265970Y562610D02*
X269970D01*
X267970Y560610D02*
Y564610D01*
X265970Y604245D02*
X269970D01*
X267970Y602245D02*
Y606245D01*
X265970Y645880D02*
X269970D01*
X267970Y643880D02*
Y647880D01*
X265970Y687514D02*
X269970D01*
X267970Y685515D02*
Y689514D01*
X265970Y770784D02*
X269970D01*
X267970Y768784D02*
Y772784D01*
X231172Y706035D02*
X235172D01*
X233172Y704035D02*
Y708035D01*
X231172Y539496D02*
X235172D01*
X233172Y537496D02*
Y541496D01*
X231172Y581131D02*
X235172D01*
X233172Y579131D02*
Y583131D01*
X231172Y622766D02*
X235172D01*
X233172Y620766D02*
Y624766D01*
X231172Y664400D02*
X235172D01*
X233172Y662401D02*
Y666400D01*
X231172Y747670D02*
X235172D01*
X233172Y745670D02*
Y749670D01*
X95028Y691838D02*
X99028D01*
X97028Y689838D02*
Y693838D01*
X152432Y743352D02*
X156432D01*
X154432Y741352D02*
Y745352D01*
X182404Y758338D02*
X186404D01*
X184404Y756338D02*
Y760338D01*
X182404Y675068D02*
X186404D01*
X184404Y673068D02*
Y677068D01*
X182404Y633434D02*
X186404D01*
X184404Y631434D02*
Y635434D01*
X182404Y591799D02*
X186404D01*
X184404Y589799D02*
Y593799D01*
X182404Y550164D02*
X186404D01*
X184404Y548164D02*
Y552164D01*
X182404Y716703D02*
X186404D01*
X184404Y714703D02*
Y718703D01*
X152432Y660082D02*
X156432D01*
X154432Y658083D02*
Y662082D01*
X152432Y618448D02*
X156432D01*
X154432Y616448D02*
Y620448D01*
X152432Y576813D02*
X156432D01*
X154432Y574813D02*
Y578813D01*
X152432Y535178D02*
X156432D01*
X154432Y533178D02*
Y537178D01*
X152432Y701717D02*
X156432D01*
X154432Y699717D02*
Y703717D01*
X119299Y728453D02*
X123299D01*
X121299Y726453D02*
Y730453D01*
X119299Y688801D02*
X123299D01*
X121299Y686801D02*
Y690801D01*
X119299Y490540D02*
X123299D01*
X121299Y488540D02*
Y492540D01*
X119299Y530192D02*
X123299D01*
X121299Y528192D02*
Y532192D01*
X119299Y569844D02*
X123299D01*
X121299Y567844D02*
Y571844D01*
X119299Y609496D02*
X123299D01*
X121299Y607496D02*
Y611496D01*
X119299Y649149D02*
X123299D01*
X121299Y647149D02*
Y651149D01*
X95028Y505968D02*
X99028D01*
X97028Y503968D02*
Y507968D01*
X95028Y543142D02*
X99028D01*
X97028Y541142D02*
Y545142D01*
X95028Y580316D02*
X99028D01*
X97028Y578316D02*
Y582316D01*
X95028Y617490D02*
X99028D01*
X97028Y615490D02*
Y619490D01*
X95028Y654664D02*
X99028D01*
X97028Y652664D02*
Y656664D01*
X66072Y669036D02*
X70072D01*
X68072Y667036D02*
Y671036D01*
X66072Y639297D02*
X70072D01*
X68072Y637297D02*
Y641297D01*
X66072Y609558D02*
X70072D01*
X68072Y607558D02*
Y611558D01*
X66072Y579818D02*
X70072D01*
X68072Y577818D02*
Y581818D01*
X66072Y550079D02*
X70072D01*
X68072Y548079D02*
Y552079D01*
X66072Y520340D02*
X70072D01*
X68072Y518340D02*
Y522340D01*
X66072Y490601D02*
X70072D01*
X68072Y488601D02*
Y492601D01*
X716812Y307340D02*
X719812D01*
X718312Y305840D02*
Y308840D01*
X669576Y652018D02*
X673576D01*
X671576Y650018D02*
Y654018D01*
X716050Y735076D02*
X719050D01*
X717550Y733576D02*
Y736576D01*
X728242Y636524D02*
X731242D01*
X729742Y635024D02*
Y638024D01*
X694460Y627126D02*
X697460D01*
X695960Y625626D02*
Y628626D01*
X694206Y659892D02*
X697206D01*
X695706Y658392D02*
Y661392D01*
X679728Y626110D02*
X682728D01*
X681228Y624610D02*
Y627610D01*
X679728Y636778D02*
X682728D01*
X681228Y635278D02*
Y638278D01*
X670676Y608676D02*
X673676D01*
X672176Y607176D02*
Y610176D01*
X669576Y646684D02*
X673576D01*
X671576Y644684D02*
Y648684D01*
X102140Y228346D02*
X106140D01*
X104140Y226346D02*
Y230346D01*
X102140Y251460D02*
X106140D01*
X104140Y249460D02*
Y253460D01*
X102140Y274574D02*
X106140D01*
X104140Y272574D02*
Y276574D01*
X77248Y451358D02*
X81248D01*
X79248Y449358D02*
Y453358D01*
X77248Y393446D02*
X81248D01*
X79248Y391446D02*
Y395446D01*
X77248Y364490D02*
X81248D01*
X79248Y362490D02*
Y366490D01*
X77248Y277622D02*
X81248D01*
X79248Y275622D02*
Y279622D01*
X77248Y306578D02*
X81248D01*
X79248Y304578D02*
Y308578D01*
X77248Y335534D02*
X81248D01*
X79248Y333534D02*
Y337534D01*
X77248Y248666D02*
X81248D01*
X79248Y246666D02*
Y250666D01*
X64802Y241300D02*
X68802D01*
X66802Y239300D02*
Y243300D01*
X64802Y328168D02*
X68802D01*
X66802Y326168D02*
Y330168D01*
X64802Y306451D02*
X68802D01*
X66802Y304451D02*
Y308451D01*
X64802Y284734D02*
X68802D01*
X66802Y282734D02*
Y286734D01*
X64802Y263017D02*
X68802D01*
X66802Y261017D02*
Y265017D01*
X847876Y573024D02*
X850876D01*
X849376Y571524D02*
Y574524D01*
X828072Y697484D02*
X832072D01*
X830072Y695484D02*
Y699484D01*
X833660Y686308D02*
X837660D01*
X835660Y684308D02*
Y688308D01*
X828072Y689864D02*
X832072D01*
X830072Y687864D02*
Y691864D01*
X833660Y693928D02*
X837660D01*
X835660Y691928D02*
Y695928D01*
X828072Y667004D02*
X832072D01*
X830072Y665004D02*
Y669004D01*
X833660Y678688D02*
X837660D01*
X835660Y676688D02*
Y680688D01*
X828072Y682244D02*
X832072D01*
X830072Y680244D02*
Y684244D01*
X828072Y674624D02*
X832072D01*
X830072Y672624D02*
Y676624D01*
X833660Y671068D02*
X837660D01*
X835660Y669068D02*
Y673068D01*
X828072Y705104D02*
X832072D01*
X830072Y703104D02*
Y707104D01*
X833660Y701548D02*
X837660D01*
X835660Y699548D02*
Y703548D01*
X728313Y663512D02*
X731313D01*
X729813Y662011D02*
Y665012D01*
X773200Y589534D02*
X776200D01*
X774700Y588034D02*
Y591034D01*
X774216Y622300D02*
X777216D01*
X775716Y620800D02*
Y623800D01*
X804188Y558800D02*
X807188D01*
X805688Y557300D02*
Y560300D01*
X790726Y581914D02*
X793726D01*
X792226Y580414D02*
Y583414D01*
X738148Y585978D02*
X741148D01*
X739648Y584478D02*
Y587478D01*
X777272Y265176D02*
X781272D01*
X779272Y263176D02*
Y267176D01*
X904018Y303276D02*
X908018D01*
X906018Y301276D02*
Y305276D01*
X953294Y402336D02*
X957294D01*
X955294Y400336D02*
Y404336D01*
X769652Y342392D02*
X773652D01*
X771652Y340392D02*
Y344392D01*
X925600Y427228D02*
X928600D01*
X927100Y425728D02*
Y428728D01*
X922806Y415798D02*
X925806D01*
X924306Y414298D02*
Y417298D01*
X157766Y248158D02*
X161766D01*
X159766Y246158D02*
Y250158D01*
X480084Y46228D02*
X483084D01*
X481584Y44728D02*
Y47728D01*
X220841Y289477D02*
X224841D01*
X222841Y287477D02*
Y291477D01*
X241324Y349504D02*
X244324D01*
X242824Y348004D02*
Y351004D01*
X256064Y249174D02*
X260064D01*
X258064Y247174D02*
Y251174D01*
X220242Y310134D02*
X223242D01*
X221742Y308634D02*
Y311634D01*
X226846Y315976D02*
X229846D01*
X228346Y314476D02*
Y317476D01*
X280702Y271272D02*
X284702D01*
X282702Y269272D02*
Y273272D01*
X175038Y319532D02*
X179038D01*
X177038Y317532D02*
Y321532D01*
X524026Y272542D02*
X527026D01*
X525526Y271042D02*
Y274042D01*
X556284Y260604D02*
X559284D01*
X557784Y259104D02*
Y262104D01*
X298220Y327660D02*
X301220D01*
X299720Y326160D02*
Y329160D01*
X293648Y430276D02*
X296648D01*
X295148Y428776D02*
Y431776D01*
X232942Y441960D02*
X235942D01*
X234442Y440460D02*
Y443460D01*
X216940Y437896D02*
X219940D01*
X218440Y436396D02*
Y439396D01*
X503960Y39624D02*
X506960D01*
X505460Y38124D02*
Y41124D01*
X480084Y19050D02*
X483084D01*
X481584Y17550D02*
Y20550D01*
X480084Y39116D02*
X483084D01*
X481584Y37616D02*
Y40616D01*
X269264Y327660D02*
X272264D01*
X270764Y326160D02*
Y329160D01*
X251230Y327660D02*
X254230D01*
X252730Y326160D02*
Y329160D01*
X196874Y268478D02*
X199874D01*
X198374Y266978D02*
Y269978D01*
X204748Y268478D02*
X207748D01*
X206248Y266978D02*
Y269978D01*
X243102Y432308D02*
X246102D01*
X244602Y430808D02*
Y433808D01*
X249452Y427990D02*
X252452D01*
X250952Y426490D02*
Y429490D01*
X231672Y488442D02*
X234672D01*
X233172Y486942D02*
Y489942D01*
X150392Y477520D02*
X153392D01*
X151892Y476020D02*
Y479020D01*
X156234Y467614D02*
X159234D01*
X157734Y466114D02*
Y469114D01*
X800378Y273558D02*
X803378D01*
X801878Y272058D02*
Y275058D01*
X800378Y256794D02*
X803378D01*
X801878Y255294D02*
Y258294D01*
X861402Y463494D02*
X864401D01*
X862902Y461994D02*
Y464994D01*
X868704Y439166D02*
X871704D01*
X870204Y437666D02*
Y440666D01*
X918488Y440802D02*
X921488D01*
X919988Y439302D02*
Y442302D01*
X911376Y434594D02*
X914376D01*
X912876Y433094D02*
Y436094D01*
X788186Y296418D02*
X791186D01*
X789686Y294918D02*
Y297918D01*
X958962Y416814D02*
X961962D01*
X960462Y415314D02*
Y418314D01*
X236752Y449834D02*
X239752D01*
X238252Y448334D02*
Y451334D01*
X126008Y316738D02*
X129008D01*
X127508Y315238D02*
Y318238D01*
X126008Y330454D02*
X129008D01*
X127508Y328954D02*
Y331954D01*
X187222Y500380D02*
X190222D01*
X188722Y498880D02*
Y501880D01*
X175792Y498348D02*
X178792D01*
X177292Y496848D02*
Y499848D01*
X173252Y525272D02*
X176252D01*
X174752Y523772D02*
Y526772D01*
X173252Y505206D02*
X176252D01*
X174752Y503706D02*
Y506706D01*
X201954Y491490D02*
X204954D01*
X203454Y489990D02*
Y492990D01*
X195096Y488696D02*
X198096D01*
X196596Y487196D02*
Y490196D01*
X187476Y488696D02*
X190476D01*
X188976Y487196D02*
Y490196D01*
X237514Y336550D02*
X240514D01*
X239014Y335050D02*
Y338050D01*
X830350Y414274D02*
X833350D01*
X831850Y412774D02*
Y415774D01*
X836383Y380143D02*
X839382D01*
X837883Y378643D02*
Y381643D01*
X766096Y183134D02*
X770096D01*
X768096Y181134D02*
Y185134D01*
X766096Y203454D02*
X770096D01*
X768096Y201454D02*
Y205454D01*
X781590Y213106D02*
X785590D01*
X783590Y211106D02*
Y215106D01*
X781590Y204174D02*
X785590D01*
X783590Y202174D02*
Y206174D01*
X781590Y195241D02*
X785590D01*
X783590Y193241D02*
Y197241D01*
X781590Y186309D02*
X785590D01*
X783590Y184309D02*
Y188309D01*
X781590Y177377D02*
X785590D01*
X783590Y175377D02*
Y179377D01*
X781590Y168444D02*
X785590D01*
X783590Y166444D02*
Y170444D01*
X781590Y159512D02*
X785590D01*
X783590Y157512D02*
Y161512D01*
X774224Y159512D02*
X778224D01*
X776224Y157512D02*
Y161512D01*
X774224Y168444D02*
X778224D01*
X776224Y166444D02*
Y170444D01*
X774224Y177377D02*
X778224D01*
X776224Y175377D02*
Y179377D01*
X774224Y186309D02*
X778224D01*
X776224Y184309D02*
Y188309D01*
X774224Y195241D02*
X778224D01*
X776224Y193241D02*
Y197241D01*
X774224Y204174D02*
X778224D01*
X776224Y202174D02*
Y206174D01*
X774224Y213106D02*
X778224D01*
X776224Y211106D02*
Y215106D01*
X294702Y178816D02*
X298702D01*
X296702Y176816D02*
Y180816D01*
X294702Y164846D02*
X298702D01*
X296702Y162846D02*
Y166846D01*
X294702Y150876D02*
X298702D01*
X296702Y148876D02*
Y152876D01*
X701834Y164846D02*
X705834D01*
X703834Y162846D02*
Y166846D01*
X701834Y178816D02*
X705834D01*
X703834Y176816D02*
Y180816D01*
X529614Y234950D02*
X532614D01*
X531114Y233450D02*
Y236450D01*
X529614Y214122D02*
X532614D01*
X531114Y212622D02*
Y215622D01*
X110260Y455930D02*
X113260D01*
X111760Y454430D02*
Y457430D01*
X125500Y449834D02*
X128500D01*
X127000Y448334D02*
Y451334D01*
X118388Y455930D02*
X121388D01*
X119888Y454430D02*
Y457430D01*
X136295Y455930D02*
X139295D01*
X137795Y454430D02*
Y457430D01*
X122746Y402234D02*
X125746D01*
X124246Y400734D02*
Y403734D01*
X122746Y388620D02*
X125746D01*
X124246Y387120D02*
Y390120D01*
X64802Y349885D02*
X68802D01*
X66802Y347885D02*
Y351885D01*
X64802Y371602D02*
X68802D01*
X66802Y369602D02*
Y373602D01*
X64802Y393319D02*
X68802D01*
X66802Y391319D02*
Y395319D01*
X64802Y415036D02*
X68802D01*
X66802Y413036D02*
Y417036D01*
X64802Y436753D02*
X68802D01*
X66802Y434753D02*
Y438753D01*
X64802Y458470D02*
X68802D01*
X66802Y456470D02*
Y460470D01*
X439579Y159846D02*
X443579D01*
X441579Y157846D02*
Y161846D01*
X449993Y155448D02*
X453993D01*
X451993Y153448D02*
Y157448D01*
X453549Y159846D02*
X457549D01*
X455549Y157846D02*
Y161846D01*
X446564Y159846D02*
X450564D01*
X448564Y157846D02*
Y161846D01*
X436023Y155448D02*
X440023D01*
X438023Y153448D02*
Y157448D01*
X460534Y159846D02*
X464534D01*
X462534Y157846D02*
Y161846D01*
X456978Y155448D02*
X460978D01*
X458978Y153448D02*
Y157448D01*
X432530Y160064D02*
X436530D01*
X434530Y158064D02*
Y162064D01*
X443008Y155448D02*
X447008D01*
X445008Y153448D02*
Y157448D01*
X544481Y155448D02*
X548481D01*
X546481Y153448D02*
Y157448D01*
X534003Y160064D02*
X538003D01*
X536003Y158064D02*
Y162064D01*
X558451Y155448D02*
X562451D01*
X560451Y153448D02*
Y157448D01*
X562007Y159846D02*
X566007D01*
X564007Y157846D02*
Y161846D01*
X537496Y155448D02*
X541496D01*
X539496Y153448D02*
Y157448D01*
X548037Y159846D02*
X552037D01*
X550037Y157846D02*
Y161846D01*
X555022Y159846D02*
X559022D01*
X557022Y157846D02*
Y161846D01*
X551466Y155448D02*
X555466D01*
X553466Y153448D02*
Y157448D01*
X541052Y159846D02*
X545052D01*
X543052Y157846D02*
Y161846D01*
M02*
