G04*
G04 #@! TF.GenerationSoftware,Altium Limited,Altium Designer,22.1.2 (22)*
G04*
G04 Layer_Color=8388736*
%FSLAX44Y44*%
%MOMM*%
G71*
G04*
G04 #@! TF.SameCoordinates,7F6DEDBC-D18B-47E0-87DD-0464843C39CA*
G04*
G04*
G04 #@! TF.FilePolarity,Negative*
G04*
G01*
G75*
%ADD61O,1.7032X1.0032*%
%ADD62O,1.7032X1.2032*%
G04:AMPARAMS|DCode=63|XSize=2.601mm|YSize=3.302mm|CornerRadius=0mm|HoleSize=0mm|Usage=FLASHONLY|Rotation=135.000|XOffset=0mm|YOffset=0mm|HoleType=Round|Shape=Rectangle|*
%AMROTATEDRECTD63*
4,1,4,2.0870,0.2479,-0.2479,-2.0870,-2.0870,-0.2479,0.2479,2.0870,2.0870,0.2479,0.0*
%
%ADD63ROTATEDRECTD63*%

G04:AMPARAMS|DCode=64|XSize=0.4013mm|YSize=1.9025mm|CornerRadius=0mm|HoleSize=0mm|Usage=FLASHONLY|Rotation=135.000|XOffset=0mm|YOffset=0mm|HoleType=Round|Shape=Rectangle|*
%AMROTATEDRECTD64*
4,1,4,0.8145,0.5307,-0.5307,-0.8145,-0.8145,-0.5307,0.5307,0.8145,0.8145,0.5307,0.0*
%
%ADD64ROTATEDRECTD64*%

G04:AMPARAMS|DCode=65|XSize=0.4mm|YSize=1.9mm|CornerRadius=0mm|HoleSize=0mm|Usage=FLASHONLY|Rotation=45.000|XOffset=0mm|YOffset=0mm|HoleType=Round|Shape=Rectangle|*
%AMROTATEDRECTD65*
4,1,4,0.5303,-0.8132,-0.8132,0.5303,-0.5303,0.8132,0.8132,-0.5303,0.5303,-0.8132,0.0*
%
%ADD65ROTATEDRECTD65*%

G04:AMPARAMS|DCode=66|XSize=2.6mm|YSize=3.3mm|CornerRadius=0mm|HoleSize=0mm|Usage=FLASHONLY|Rotation=45.000|XOffset=0mm|YOffset=0mm|HoleType=Round|Shape=Rectangle|*
%AMROTATEDRECTD66*
4,1,4,0.2475,-2.0860,-2.0860,0.2475,-0.2475,2.0860,2.0860,-0.2475,0.2475,-2.0860,0.0*
%
%ADD66ROTATEDRECTD66*%

%ADD67R,0.8620X0.8620*%
%ADD68O,0.7000X1.3000*%
%ADD69R,0.8620X0.8620*%
%ADD70R,1.5032X1.2032*%
G04:AMPARAMS|DCode=71|XSize=2.6mm|YSize=3.6mm|CornerRadius=0.675mm|HoleSize=0mm|Usage=FLASHONLY|Rotation=0.000|XOffset=0mm|YOffset=0mm|HoleType=Round|Shape=RoundedRectangle|*
%AMROUNDEDRECTD71*
21,1,2.6000,2.2500,0,0,0.0*
21,1,1.2500,3.6000,0,0,0.0*
1,1,1.3500,0.6250,-1.1250*
1,1,1.3500,-0.6250,-1.1250*
1,1,1.3500,-0.6250,1.1250*
1,1,1.3500,0.6250,1.1250*
%
%ADD71ROUNDEDRECTD71*%
%ADD72R,1.2032X1.5032*%
%ADD73R,1.2016X1.2016*%
%ADD74O,0.8516X0.3016*%
%ADD75O,0.3016X0.8516*%
%ADD76R,1.7272X0.8032*%
%ADD77R,3.0032X3.0032*%
%ADD78O,0.4032X0.9532*%
%ADD79O,0.9532X0.4032*%
%ADD80R,1.0636X0.9316*%
%ADD81R,2.0032X2.6032*%
%ADD82R,0.9032X0.5032*%
%ADD83R,4.2032X3.2032*%
%ADD84R,3.5032X4.7032*%
%ADD85O,1.0532X0.4532*%
%ADD86O,0.4532X1.0532*%
G04:AMPARAMS|DCode=87|XSize=1.7032mm|YSize=1.2032mm|CornerRadius=0mm|HoleSize=0mm|Usage=FLASHONLY|Rotation=225.000|XOffset=0mm|YOffset=0mm|HoleType=Round|Shape=Rectangle|*
%AMROTATEDRECTD87*
4,1,4,0.1768,1.0276,1.0276,0.1768,-0.1768,-1.0276,-1.0276,-0.1768,0.1768,1.0276,0.0*
%
%ADD87ROTATEDRECTD87*%

%ADD88R,1.7032X1.2032*%
G04:AMPARAMS|DCode=89|XSize=1.7032mm|YSize=1.2032mm|CornerRadius=0mm|HoleSize=0mm|Usage=FLASHONLY|Rotation=135.000|XOffset=0mm|YOffset=0mm|HoleType=Round|Shape=Rectangle|*
%AMROTATEDRECTD89*
4,1,4,1.0276,-0.1768,0.1768,-1.0276,-1.0276,0.1768,-0.1768,1.0276,1.0276,-0.1768,0.0*
%
%ADD89ROTATEDRECTD89*%

%ADD90R,1.2032X1.7032*%
%ADD91R,1.2032X1.2032*%
%ADD92R,1.1176X1.1176*%
%ADD93R,1.2032X1.2032*%
%ADD94R,1.1176X1.1176*%
%ADD95R,1.5032X1.7032*%
%ADD96R,5.3032X5.3032*%
%ADD97O,1.1032X0.4032*%
%ADD98O,0.4032X1.1032*%
%ADD99R,0.8032X0.8032*%
%ADD100R,1.4032X1.0032*%
%ADD101R,1.0000X0.8600*%
%ADD102R,0.8600X1.0000*%
%ADD103O,1.1032X1.8032*%
%ADD104O,1.1032X2.0032*%
%ADD105O,2.2032X1.7032*%
%ADD106O,1.7032X2.2032*%
%ADD107O,1.8032X2.0032*%
%ADD108C,0.9032*%
G36*
X68185Y495035D02*
X68185Y486035D01*
X19185D01*
Y472035D01*
X63396Y472035D01*
Y467035D01*
X19185Y467035D01*
Y450035D01*
X45585D01*
Y445035D01*
X45585D01*
X45585Y425035D01*
X45585D01*
Y420035D01*
X19185D01*
Y403035D01*
X45585D01*
Y403035D01*
X45585D01*
Y373007D01*
X40579Y373007D01*
X19179D01*
Y356035D01*
X29396D01*
Y351035D01*
X19179Y351035D01*
Y351035D01*
X14185D01*
Y351035D01*
X14185D01*
X14185Y356035D01*
X14185D01*
X14185Y373007D01*
D01*
Y378035D01*
X40579D01*
X40579Y398035D01*
X14185D01*
Y425035D01*
X14185D01*
X40585Y425035D01*
X40585Y445035D01*
X14185D01*
Y445035D01*
X14185D01*
Y486035D01*
X14185D01*
Y495035D01*
X68185Y495035D01*
D02*
G37*
D61*
X854456Y583692D02*
D03*
D62*
X871982Y573024D02*
D03*
D63*
X174107Y174663D02*
D03*
X219367Y129403D02*
D03*
D64*
X219008Y156631D02*
D03*
X215470Y160169D02*
D03*
X211931Y163707D02*
D03*
X208411Y167227D02*
D03*
X204873Y170766D02*
D03*
X201335Y174304D02*
D03*
D65*
X767759Y112666D02*
D03*
X771295Y116202D02*
D03*
X774830Y119736D02*
D03*
X778366Y123273D02*
D03*
D66*
X767405Y85443D02*
D03*
X805589Y123627D02*
D03*
D67*
X869950Y463438D02*
D03*
Y449438D02*
D03*
X584962Y709026D02*
D03*
Y723026D02*
D03*
X637794Y755508D02*
D03*
Y769508D02*
D03*
X642112Y707263D02*
D03*
Y721233D02*
D03*
X822452Y616570D02*
D03*
Y630570D02*
D03*
X838454Y616346D02*
D03*
Y602346D02*
D03*
X856234Y572643D02*
D03*
Y558673D02*
D03*
X842518Y558673D02*
D03*
Y572643D02*
D03*
X828548Y572643D02*
D03*
Y558673D02*
D03*
X814578Y572643D02*
D03*
Y558643D02*
D03*
X800862Y572643D02*
D03*
Y558673D02*
D03*
X786638Y572643D02*
D03*
Y558673D02*
D03*
X773176Y572643D02*
D03*
Y558673D02*
D03*
X729742Y656717D02*
D03*
Y642747D02*
D03*
X715772D02*
D03*
Y656717D02*
D03*
X870204Y558688D02*
D03*
Y544688D02*
D03*
X831088Y506110D02*
D03*
Y492110D02*
D03*
X924814Y445628D02*
D03*
Y459628D02*
D03*
X926338Y373507D02*
D03*
Y359537D02*
D03*
X943610Y346075D02*
D03*
X943610Y360045D02*
D03*
X957834Y346075D02*
D03*
X957834Y360045D02*
D03*
X961390Y401716D02*
D03*
Y387716D02*
D03*
X851662Y373253D02*
D03*
Y359283D02*
D03*
X837692Y373253D02*
D03*
Y359283D02*
D03*
X926338Y345821D02*
D03*
Y331821D02*
D03*
X675894Y157876D02*
D03*
Y171876D02*
D03*
X573532Y209154D02*
D03*
Y223154D02*
D03*
X557784Y240142D02*
D03*
Y254112D02*
D03*
X559816Y205867D02*
D03*
Y219837D02*
D03*
X542544Y254142D02*
D03*
Y240142D02*
D03*
X544576Y205867D02*
D03*
Y219837D02*
D03*
X573532Y180467D02*
D03*
Y194437D02*
D03*
X574802Y158892D02*
D03*
Y144892D02*
D03*
X519684Y122570D02*
D03*
Y108570D02*
D03*
X505841Y122570D02*
D03*
Y108570D02*
D03*
X488188Y122570D02*
D03*
Y108570D02*
D03*
X505460Y46355D02*
D03*
Y60325D02*
D03*
X490982Y46355D02*
D03*
Y60325D02*
D03*
X422656Y144922D02*
D03*
Y130922D02*
D03*
Y180721D02*
D03*
Y194691D02*
D03*
Y208392D02*
D03*
Y222392D02*
D03*
X325120Y157846D02*
D03*
Y171846D02*
D03*
X270764Y321183D02*
D03*
Y307213D02*
D03*
X252730Y321183D02*
D03*
Y307213D02*
D03*
Y292847D02*
D03*
Y278877D02*
D03*
Y264302D02*
D03*
Y250302D02*
D03*
X270764Y292847D02*
D03*
Y278877D02*
D03*
X226314Y286004D02*
D03*
Y300004D02*
D03*
X159766Y255128D02*
D03*
Y269128D02*
D03*
X176276Y282814D02*
D03*
Y296814D02*
D03*
X144272Y286385D02*
D03*
Y300355D02*
D03*
X144526Y322184D02*
D03*
Y336184D02*
D03*
X219710Y325770D02*
D03*
Y339740D02*
D03*
X205232Y339740D02*
D03*
Y325740D02*
D03*
X191177Y339740D02*
D03*
Y325740D02*
D03*
X177123Y339740D02*
D03*
Y325740D02*
D03*
X163068Y339740D02*
D03*
Y325740D02*
D03*
X219202Y367426D02*
D03*
Y353426D02*
D03*
X205232Y367426D02*
D03*
Y353426D02*
D03*
X191177Y367426D02*
D03*
Y353426D02*
D03*
X177123Y367426D02*
D03*
Y353426D02*
D03*
X163068Y367426D02*
D03*
Y353426D02*
D03*
X242062Y406004D02*
D03*
Y420004D02*
D03*
X93472Y316103D02*
D03*
Y302133D02*
D03*
Y330581D02*
D03*
Y344551D02*
D03*
X80518Y413624D02*
D03*
Y427624D02*
D03*
D68*
X603656Y730026D02*
D03*
X613156Y702026D02*
D03*
Y730026D02*
D03*
X622656Y702026D02*
D03*
X603656Y702026D02*
D03*
X622656Y730026D02*
D03*
D69*
X656209Y735076D02*
D03*
X642239D02*
D03*
X626999Y684784D02*
D03*
X613029D02*
D03*
X529971Y684784D02*
D03*
X543941D02*
D03*
X530210Y699516D02*
D03*
X544210D02*
D03*
X846186Y697992D02*
D03*
X860186D02*
D03*
X771510Y642874D02*
D03*
X785510D02*
D03*
X743585Y642874D02*
D03*
X757555Y642874D02*
D03*
X729884Y670306D02*
D03*
X715884D02*
D03*
X759587Y613537D02*
D03*
X745617D02*
D03*
X759587Y627295D02*
D03*
X745617D02*
D03*
X759587Y599779D02*
D03*
X745617Y599779D02*
D03*
X745617Y585978D02*
D03*
X759587D02*
D03*
X759587Y572262D02*
D03*
X745617D02*
D03*
X856361Y544576D02*
D03*
X842391D02*
D03*
X828421Y544576D02*
D03*
X814451D02*
D03*
X800481Y544576D02*
D03*
X786511D02*
D03*
X841883Y463550D02*
D03*
X855853D02*
D03*
X841883Y449580D02*
D03*
X855853D02*
D03*
X838073Y414337D02*
D03*
X852043D02*
D03*
X852043Y427990D02*
D03*
X838073D02*
D03*
X891652Y444246D02*
D03*
X905652D02*
D03*
X891667Y457962D02*
D03*
X905637D02*
D03*
X940420Y430530D02*
D03*
X954420D02*
D03*
X954390Y416814D02*
D03*
X940420D02*
D03*
X957722Y373888D02*
D03*
X943722D02*
D03*
X879729Y373380D02*
D03*
X865759D02*
D03*
X838073Y400685D02*
D03*
X852043D02*
D03*
X852043Y387033D02*
D03*
X838073D02*
D03*
X912114Y373380D02*
D03*
X898114D02*
D03*
X898144Y359283D02*
D03*
X912144D02*
D03*
X879729Y345186D02*
D03*
X865759D02*
D03*
X879729Y359283D02*
D03*
X865729D02*
D03*
X898144Y345186D02*
D03*
X912114D02*
D03*
X912114Y331470D02*
D03*
X898144D02*
D03*
X926719Y317500D02*
D03*
X912749D02*
D03*
X926719Y303530D02*
D03*
X912749D02*
D03*
X776478Y337058D02*
D03*
X790448D02*
D03*
X805419Y337058D02*
D03*
X819419Y337058D02*
D03*
X831962Y295402D02*
D03*
X845962D02*
D03*
X732155Y299974D02*
D03*
X718185D02*
D03*
X703946Y144018D02*
D03*
X689976D02*
D03*
X689976Y157903D02*
D03*
X703976D02*
D03*
X689976Y171789D02*
D03*
X703976D02*
D03*
X689976Y185674D02*
D03*
X703946D02*
D03*
X545450Y180594D02*
D03*
X559450D02*
D03*
X533258Y131064D02*
D03*
X547258D02*
D03*
X574690D02*
D03*
X560720D02*
D03*
X477916D02*
D03*
X463916D02*
D03*
X450215D02*
D03*
X436245D02*
D03*
X458358Y226822D02*
D03*
X444358D02*
D03*
X438262Y180594D02*
D03*
X452262D02*
D03*
X296814Y144018D02*
D03*
X310784D02*
D03*
X296784Y157988D02*
D03*
X310784D02*
D03*
X296814Y185928D02*
D03*
X310784D02*
D03*
X296784Y171958D02*
D03*
X310784D02*
D03*
X270622Y265430D02*
D03*
X284622D02*
D03*
X157876Y203454D02*
D03*
X143876D02*
D03*
X249062Y202692D02*
D03*
X235062D02*
D03*
X226441Y254762D02*
D03*
X212471D02*
D03*
X212471Y268478D02*
D03*
X226441D02*
D03*
X192151D02*
D03*
X178181D02*
D03*
X192151Y254762D02*
D03*
X178181D02*
D03*
X121285Y330454D02*
D03*
X107315D02*
D03*
X121285Y316738D02*
D03*
X107315D02*
D03*
X121300Y344424D02*
D03*
X107300D02*
D03*
X121300Y358140D02*
D03*
X107300D02*
D03*
X121300Y371856D02*
D03*
X107300D02*
D03*
X121300Y385572D02*
D03*
X107300D02*
D03*
X121300Y399288D02*
D03*
X107300D02*
D03*
X111648Y441452D02*
D03*
X97648D02*
D03*
D70*
X620268Y752254D02*
D03*
Y772254D02*
D03*
X855980Y621124D02*
D03*
X855980Y601124D02*
D03*
X848614Y508856D02*
D03*
Y488856D02*
D03*
X869103Y508856D02*
D03*
Y488856D02*
D03*
X889593Y508856D02*
D03*
Y488856D02*
D03*
X910082Y508856D02*
D03*
Y488856D02*
D03*
D71*
X526752Y765810D02*
D03*
X584752D02*
D03*
X758654Y685800D02*
D03*
X816654D02*
D03*
X597618Y123698D02*
D03*
X655618D02*
D03*
X597618Y205994D02*
D03*
X655618D02*
D03*
X342094Y123698D02*
D03*
X400094D02*
D03*
X342602Y205994D02*
D03*
X400602D02*
D03*
D72*
X527210Y718058D02*
D03*
X547210D02*
D03*
X843186Y680720D02*
D03*
X863186Y680720D02*
D03*
X829216Y277876D02*
D03*
X849216D02*
D03*
X747922Y254254D02*
D03*
X767922D02*
D03*
Y172974D02*
D03*
X747922D02*
D03*
X767922Y193294D02*
D03*
X747922D02*
D03*
X767922Y213614D02*
D03*
X747922D02*
D03*
X767922Y233934D02*
D03*
X747922D02*
D03*
D73*
X790194Y606552D02*
D03*
D74*
X805694Y610552D02*
D03*
X805694Y606552D02*
D03*
Y602552D02*
D03*
Y598552D02*
D03*
X774694D02*
D03*
Y602552D02*
D03*
Y606552D02*
D03*
X774694Y610552D02*
D03*
X774694Y614552D02*
D03*
X805694D02*
D03*
D75*
X794194Y591052D02*
D03*
X790194D02*
D03*
X786194Y591052D02*
D03*
X782194D02*
D03*
Y622052D02*
D03*
X786194D02*
D03*
X790194Y622052D02*
D03*
X794194D02*
D03*
X798194D02*
D03*
Y591052D02*
D03*
D76*
X776964Y498022D02*
D03*
X805964D02*
D03*
X805964Y489022D02*
D03*
X776964Y489022D02*
D03*
X779504Y284408D02*
D03*
X808504D02*
D03*
Y275408D02*
D03*
X779504D02*
D03*
D77*
X893064Y408178D02*
D03*
D78*
X879064Y427928D02*
D03*
X883064D02*
D03*
X887064D02*
D03*
X891064D02*
D03*
X895064D02*
D03*
X899064D02*
D03*
X903064D02*
D03*
X907064D02*
D03*
Y388428D02*
D03*
X903064D02*
D03*
X899064D02*
D03*
X895064D02*
D03*
X891064D02*
D03*
X887064D02*
D03*
X883064D02*
D03*
X879064D02*
D03*
D79*
X912814Y422178D02*
D03*
Y418178D02*
D03*
Y414178D02*
D03*
Y410178D02*
D03*
Y406178D02*
D03*
Y402178D02*
D03*
Y398178D02*
D03*
Y394178D02*
D03*
X873314D02*
D03*
Y398178D02*
D03*
Y402178D02*
D03*
Y406178D02*
D03*
Y410178D02*
D03*
Y414178D02*
D03*
Y418178D02*
D03*
Y422178D02*
D03*
D80*
X938166Y445516D02*
D03*
X956166D02*
D03*
D81*
X807706Y309894D02*
D03*
X764526D02*
D03*
D82*
X789672Y300130D02*
D03*
Y306630D02*
D03*
X819672Y313130D02*
D03*
Y319630D02*
D03*
Y300130D02*
D03*
Y306630D02*
D03*
X789672Y313130D02*
D03*
Y319630D02*
D03*
X746492Y300130D02*
D03*
Y306630D02*
D03*
X776492Y313130D02*
D03*
Y319630D02*
D03*
Y300130D02*
D03*
X776492Y306630D02*
D03*
X746492Y313130D02*
D03*
Y319630D02*
D03*
D83*
X776732Y367496D02*
D03*
Y457496D02*
D03*
D84*
X499364Y184658D02*
D03*
D85*
X528364Y207158D02*
D03*
Y202158D02*
D03*
Y197158D02*
D03*
X528364Y192158D02*
D03*
Y187158D02*
D03*
Y182158D02*
D03*
X528364Y177158D02*
D03*
Y172158D02*
D03*
Y167158D02*
D03*
Y162158D02*
D03*
X470364D02*
D03*
Y167158D02*
D03*
Y172158D02*
D03*
Y177158D02*
D03*
Y182158D02*
D03*
Y187158D02*
D03*
Y192158D02*
D03*
Y197158D02*
D03*
Y202158D02*
D03*
Y207158D02*
D03*
D86*
X521864Y155658D02*
D03*
X516864D02*
D03*
X511864D02*
D03*
X506864D02*
D03*
X501864D02*
D03*
X496864D02*
D03*
X491864D02*
D03*
X486864D02*
D03*
X481864D02*
D03*
X476864D02*
D03*
Y213658D02*
D03*
X481864D02*
D03*
X486864D02*
D03*
X491864D02*
D03*
X496864Y213658D02*
D03*
X501864D02*
D03*
X506864D02*
D03*
X511864Y213658D02*
D03*
X516864D02*
D03*
X521864D02*
D03*
D87*
X651918Y575345D02*
D03*
X628583Y598680D02*
D03*
X593935Y564031D02*
D03*
X617269Y540697D02*
D03*
X348666Y318762D02*
D03*
X372000Y295428D02*
D03*
X406649Y330076D02*
D03*
X383314Y353411D02*
D03*
D88*
X698223Y430554D02*
D03*
Y463554D02*
D03*
X649223D02*
D03*
Y430554D02*
D03*
X302360Y463554D02*
D03*
Y430554D02*
D03*
X351360D02*
D03*
Y463554D02*
D03*
D89*
X628583Y295428D02*
D03*
X651918Y318762D02*
D03*
X617269Y353411D02*
D03*
X593935Y330076D02*
D03*
X372000Y598680D02*
D03*
X348666Y575345D02*
D03*
X383314Y540697D02*
D03*
X406649Y564031D02*
D03*
D90*
X483792Y249122D02*
D03*
X516792D02*
D03*
Y298123D02*
D03*
X483792D02*
D03*
X516792Y644985D02*
D03*
X483792D02*
D03*
Y595985D02*
D03*
X516792D02*
D03*
D91*
X216789Y217932D02*
D03*
X182499D02*
D03*
X148463Y240364D02*
D03*
X70358Y490601D02*
D03*
D92*
X226441Y240792D02*
D03*
X207391D02*
D03*
X192151D02*
D03*
X173101D02*
D03*
X138811Y217504D02*
D03*
X157861D02*
D03*
D93*
X212852Y292227D02*
D03*
X107442Y293243D02*
D03*
D94*
X189992Y301879D02*
D03*
Y282829D02*
D03*
X130302Y283591D02*
D03*
Y302641D02*
D03*
D95*
X143510Y378022D02*
D03*
Y355022D02*
D03*
D96*
X187452Y437896D02*
D03*
D97*
X226452Y461896D02*
D03*
X226452Y457896D02*
D03*
Y453896D02*
D03*
Y449896D02*
D03*
Y445896D02*
D03*
Y441896D02*
D03*
Y437896D02*
D03*
Y433896D02*
D03*
Y429896D02*
D03*
Y425896D02*
D03*
Y421896D02*
D03*
Y417896D02*
D03*
X226452Y413896D02*
D03*
X226452Y409896D02*
D03*
X226452Y405896D02*
D03*
X148452D02*
D03*
X148452Y409896D02*
D03*
X148452Y413896D02*
D03*
X148452Y417896D02*
D03*
Y421896D02*
D03*
Y425896D02*
D03*
Y429896D02*
D03*
Y433896D02*
D03*
Y437896D02*
D03*
Y441896D02*
D03*
Y445896D02*
D03*
Y449896D02*
D03*
Y453896D02*
D03*
Y457896D02*
D03*
X148452Y461896D02*
D03*
X148452Y465896D02*
D03*
Y469896D02*
D03*
D98*
X219452Y398896D02*
D03*
X215452D02*
D03*
X211452Y398896D02*
D03*
X207452Y398896D02*
D03*
X203452D02*
D03*
X199452D02*
D03*
X195452D02*
D03*
X191452D02*
D03*
X187452D02*
D03*
X183452D02*
D03*
X179452D02*
D03*
X175452D02*
D03*
X171452D02*
D03*
X167452D02*
D03*
X163452Y398896D02*
D03*
X159452Y398896D02*
D03*
X155452Y398896D02*
D03*
X159452Y476896D02*
D03*
X163452Y476896D02*
D03*
X167452Y476896D02*
D03*
X171452D02*
D03*
X175452D02*
D03*
X179452D02*
D03*
X183452D02*
D03*
X187452D02*
D03*
X191452D02*
D03*
X195452D02*
D03*
X199452D02*
D03*
X203452D02*
D03*
X207452D02*
D03*
X211452Y476896D02*
D03*
X215452Y476896D02*
D03*
X219452D02*
D03*
D99*
X65786Y469519D02*
D03*
D100*
X94648Y412370D02*
D03*
X114648D02*
D03*
Y428370D02*
D03*
X94648D02*
D03*
D101*
X88138Y483743D02*
D03*
Y469773D02*
D03*
X129540Y483743D02*
D03*
Y469773D02*
D03*
D102*
X101981Y469646D02*
D03*
X115951D02*
D03*
D103*
X543630Y11576D02*
D03*
X457130D02*
D03*
D104*
Y53376D02*
D03*
X543630D02*
D03*
D105*
X902462Y579882D02*
D03*
Y554482D02*
D03*
D106*
X647700Y75946D02*
D03*
X622300D02*
D03*
X377952D02*
D03*
X352552D02*
D03*
D107*
X314198Y113792D02*
D03*
X288798D02*
D03*
D108*
X471590Y48257D02*
D03*
X529248D02*
D03*
M02*
